<svg width="20" height="41" viewBox="0 0 20 41" fill="none" xmlns="http://www.w3.org/2000/svg">
<path d="M10.0001 3.23529C10.9747 3.23529 11.7648 2.51104 11.7648 1.61764C11.7648 0.724244 10.9747 0 10.0001 0C9.02544 0 8.23535 0.724244 8.23535 1.61764C8.23535 2.51104 9.02544 3.23529 10.0001 3.23529Z" fill="#D2D6D9"/>
<path d="M14.2352 8.08824H5.76465V11H14.2352V8.08824Z" fill="#D2D6D9"/>
<path d="M14.2353 8.08824H10V11H14.2353V9.54412V8.08824Z" fill="#D2D6D9"/>
<path d="M8.94119 4.20589H4V6.79413H8.94119V4.20589Z" fill="#D2D6D9"/>
<path d="M16 4.20589H11.0588V6.79413H16V4.20589Z" fill="#D2D6D9"/>
<path d="M10 0.485291C6.98354 0.485291 4.52942 2.73485 4.52942 5.5C4.52942 8.26515 6.98354 10.5147 10 10.5147C13.0165 10.5147 15.4706 8.26515 15.4706 5.5C15.4706 2.73485 13.0165 0.485291 10 0.485291Z" fill="#E3E6E9"/>
<path d="M10 10.5147C13.0165 10.5147 15.4706 8.26515 15.4706 5.5C15.4706 2.73485 13.0165 0.485291 10 0.485291" fill="#B6B8BE"/>
<path d="M14.4118 5.5C14.4118 4.35759 13.8922 3.32438 13.0584 2.58824H6.94163C6.10784 3.32438 5.58826 4.35759 5.58826 5.5C5.58826 6.64241 6.10787 7.67561 6.94166 8.41175H13.0584C13.8922 7.67561 14.4118 6.64241 14.4118 5.5Z" fill="#3C5D76"/>
<path d="M13.0584 2.58824H10V8.41177H13.0584C13.8922 7.67561 14.4118 6.64243 14.4118 5.50002C14.4118 4.35761 13.8922 3.32438 13.0584 2.58824Z" fill="#1E2E3B"/>
<path d="M7.23001 7.23046C6.84866 6.72102 6.64709 6.12266 6.64709 5.5C6.64709 4.87743 6.84866 4.27904 7.22999 3.76956L8.10306 4.31868C7.84325 4.6658 7.70593 5.07429 7.70593 5.49998C7.70593 5.92573 7.84325 6.33424 8.10306 6.68127L7.23001 7.23046Z" fill="white"/>
<path d="M1.875 19.125H0.625V22.875H1.875V19.125Z" fill="#E3E6E9"/>
<path d="M19.375 19.125H18.125V22.875H19.375V19.125Z" fill="#E3E6E9"/>
<path d="M15 12.25H13.125V13.5C13.125 13.5863 13.1206 13.6716 13.1121 13.7556C13.0929 13.9452 13.0517 14.1282 12.9925 14.3028C12.9815 14.3352 12.9699 14.3673 12.9577 14.3992C12.9415 14.4411 12.9242 14.4824 12.9059 14.5232C12.8809 14.5787 12.8546 14.6334 12.8259 14.6866C12.8199 14.6975 12.8136 14.7081 12.8076 14.719C12.7452 14.8303 12.6746 14.9363 12.5966 15.0363C12.5728 15.0667 12.5484 15.0966 12.5233 15.1259C12.4814 15.1747 12.4382 15.2223 12.3927 15.2678C12.3913 15.2692 12.3898 15.2705 12.3885 15.2719C12.3376 15.3226 12.2844 15.3709 12.2292 15.417C12.1813 15.4571 12.1318 15.4952 12.0809 15.5317C12.0205 15.5751 11.9583 15.6159 11.894 15.6538C11.8572 15.6755 11.8198 15.6963 11.7818 15.7162C11.7252 15.7458 11.6677 15.7736 11.6087 15.7988C11.5921 15.8059 11.5752 15.8125 11.5584 15.8192C11.3077 15.9202 11.037 15.9824 10.7536 15.9968C10.711 15.9989 10.6681 16 10.625 16H10H9.375C7.9943 16 6.875 14.8807 6.875 13.5V12.25H5C2.58789 12.25 0.625 14.2129 0.625 16.625V17.875H1.875C1.875 17.1846 2.43469 16.625 3.125 16.625H3.75V17.875V19.125V22.875H5C5 22.5295 5.27953 22.25 5.625 22.25C5.97047 22.25 6.25 22.5295 6.25 22.875H7.5C7.5 22.5295 7.77953 22.25 8.125 22.25C8.47047 22.25 8.75 22.5295 8.75 22.875H10H16.25V19.125V17.875V16.625H16.875C17.5653 16.625 18.125 17.1846 18.125 17.875H19.375V16.625C19.375 14.2129 17.4121 12.25 15 12.25ZM13.125 19.75H11.875C11.5295 19.75 11.25 19.4705 11.25 19.125C11.25 18.7795 11.5295 18.5 11.875 18.5H13.125C13.4705 18.5 13.75 18.7795 13.75 19.125C13.75 19.4705 13.4705 19.75 13.125 19.75ZM13.125 17.875H11.875C11.5295 17.875 11.25 17.5955 11.25 17.25C11.25 16.9045 11.5295 16.625 11.875 16.625H13.125C13.4705 16.625 13.75 16.9045 13.75 17.25C13.75 17.5955 13.4705 17.875 13.125 17.875Z" fill="#E3E6E9"/>
<path d="M18.125 26.9017C17.6076 27.3681 16.966 27.6958 16.25 27.8168V27.25V25.375H10H8.75V26C8.75 26.3455 8.47047 26.625 8.125 26.625C7.77953 26.625 7.5 26.3455 7.5 26V25.375H6.25V26C6.25 26.3455 5.97047 26.625 5.625 26.625C5.27953 26.625 5 26.3455 5 26V25.375H3.75V27.25V27.8168C3.03398 27.6958 2.39242 27.368 1.875 26.9017V24.125H0.625C0.625 26.0037 2.01352 27.5637 3.81836 27.8335L4.92695 36.7042C5.15148 36.653 5.38492 36.625 5.625 36.625H8.75C9.09516 36.625 9.375 36.9048 9.375 37.25V29.75C9.375 29.4052 9.65516 29.125 10 29.125C10.3448 29.125 10.625 29.4052 10.625 29.75V37.25C10.625 36.9048 10.9048 36.625 11.25 36.625H14.375C14.6151 36.625 14.8484 36.653 15.073 36.7042L16.1816 27.8335C17.9864 27.5637 19.375 26.0037 19.375 24.125H18.125V26.9017Z" fill="#E3E6E9"/>
<path d="M16.875 24.75C16.875 24.7716 16.8739 24.7929 16.8718 24.8139C16.8686 24.8457 16.8623 24.8766 16.8544 24.9068C16.8505 24.9219 16.8462 24.9367 16.8412 24.9512C16.7796 25.1324 16.6373 25.2759 16.4569 25.3392C16.392 25.362 16.3226 25.375 16.25 25.375V27.25V27.8168C16.966 27.6958 17.6076 27.368 18.125 26.9017V24.125H16.875V24.75V24.75Z" fill="#B6B8BE"/>
<path d="M16.875 16.625H16.25V17.875H18.125C18.125 17.1846 17.5653 16.625 16.875 16.625Z" fill="#B6B8BE"/>
<path d="M18.125 19.125H16.25V22.875H18.125V19.125Z" fill="#B6B8BE"/>
<path d="M3.125 24.75V24.125H1.875V26.9017C2.39242 27.3681 3.03398 27.6958 3.75 27.8168V27.25V25.375C3.40484 25.375 3.125 25.0952 3.125 24.75Z" fill="#B6B8BE"/>
<path d="M3.75 19.125H1.875V22.875H3.75V19.125Z" fill="#B6B8BE"/>
<path d="M3.75 16.625H3.125C2.43469 16.625 1.875 17.1846 1.875 17.875H3.75V16.625Z" fill="#B6B8BE"/>
<path d="M7.5 11.625H8.75H10V11V10.375H5.625C5.30938 10.375 5.04906 10.6092 5.00672 10.9132C5.00273 10.9416 5 10.9705 5 11V12.25H6.875C6.875 11.9048 7.15484 11.625 7.5 11.625Z" fill="#888693"/>
<path d="M14.375 10.375H10V11V11.625H11.25H12.5C12.8452 11.625 13.125 11.9048 13.125 12.25H15V11C15 10.9705 14.9973 10.9419 14.9934 10.9135C14.9511 10.6094 14.6908 10.375 14.375 10.375Z" fill="#B6B8BE"/>
<path d="M8.75 12.875V11.625H7.5C7.15484 11.625 6.875 11.9048 6.875 12.25V13.5C6.875 14.8807 7.9943 16 9.375 16H10V14.125C9.30961 14.125 8.75 13.5653 8.75 12.875Z" fill="#5C546A"/>
<path d="M13.125 13.5C13.125 13.5863 13.1206 13.6716 13.1121 13.7556C13.1206 13.6716 13.125 13.5862 13.125 13.5Z" fill="#5C546A"/>
<path d="M11.6087 15.7988C11.5921 15.8059 11.5753 15.8124 11.5585 15.8191C11.5752 15.8124 11.5921 15.8059 11.6087 15.7988Z" fill="#5C546A"/>
<path d="M12.2292 15.4169C12.1813 15.457 12.1318 15.4951 12.0809 15.5316C12.1318 15.4951 12.1813 15.4571 12.2292 15.4169Z" fill="#5C546A"/>
<path d="M13.1122 13.7556C13.0929 13.9452 13.0518 14.1282 12.9926 14.3028C13.0518 14.1282 13.0929 13.9452 13.1122 13.7556Z" fill="#5C546A"/>
<path d="M11.894 15.6537C11.8572 15.6755 11.8198 15.6962 11.7819 15.7161C11.8198 15.6962 11.8572 15.6755 11.894 15.6537Z" fill="#5C546A"/>
<path d="M12.5966 15.0363C12.5728 15.0667 12.5484 15.0966 12.5233 15.1259C12.5484 15.0966 12.5728 15.0666 12.5966 15.0363Z" fill="#5C546A"/>
<path d="M12.9577 14.3992C12.9415 14.4411 12.9242 14.4824 12.9059 14.5232C12.9242 14.4824 12.9415 14.4411 12.9577 14.3992Z" fill="#5C546A"/>
<path d="M12.8259 14.6866C12.82 14.6975 12.8136 14.7081 12.8076 14.719C12.8136 14.7081 12.82 14.6974 12.8259 14.6866Z" fill="#5C546A"/>
<path d="M12.3928 15.2677C12.3914 15.2691 12.3899 15.2704 12.3885 15.2718C12.39 15.2704 12.3914 15.2691 12.3928 15.2677Z" fill="#5C546A"/>
<path d="M12.5 11.625H11.25V12.875C11.25 13.5654 10.6904 14.125 10 14.125V16H10.625C10.6681 16 10.711 15.9989 10.7537 15.9967C11.0371 15.9823 11.3077 15.9202 11.5585 15.8191C11.5753 15.8124 11.5922 15.8059 11.6088 15.7987C11.6677 15.7734 11.7254 15.7456 11.7819 15.7161C11.8198 15.6962 11.8573 15.6755 11.8941 15.6537C11.9583 15.6158 12.0206 15.575 12.081 15.5316C12.1318 15.4952 12.1814 15.4571 12.2293 15.417C12.2844 15.3708 12.3377 15.3225 12.3886 15.2718C12.39 15.2704 12.3915 15.2691 12.3928 15.2677C12.4383 15.2223 12.4815 15.1746 12.5234 15.1258C12.5484 15.0965 12.5729 15.0666 12.5966 15.0362C12.6747 14.9362 12.7453 14.8302 12.8077 14.7189C12.8137 14.708 12.8201 14.6974 12.8259 14.6865C12.8547 14.6333 12.881 14.5786 12.9059 14.5231C12.9242 14.4823 12.9416 14.441 12.9577 14.3991C12.97 14.3673 12.9816 14.3352 12.9926 14.3027C13.0518 14.1281 13.0929 13.9451 13.1122 13.7555C13.1207 13.6715 13.1251 13.5862 13.1251 13.4999V12.2499C13.125 11.9048 12.8452 11.625 12.5 11.625Z" fill="#888693"/>
<path d="M10 14.125C10.6904 14.125 11.25 13.5654 11.25 12.875V11.625H10V12.25V14.125Z" fill="#498030"/>
<path d="M8.75 12.875C8.75 13.5654 9.30961 14.125 10 14.125V12.25V11.625H8.75V12.875Z" fill="#498030"/>
<path d="M18.125 17.875H16.25V19.125H18.125V17.875Z" fill="#888693"/>
<path d="M3.75 17.875H1.875V19.125H3.75V17.875Z" fill="#888693"/>
<path d="M19.375 17.875H18.125V19.125H19.375V17.875Z" fill="#888693"/>
<path d="M1.875 17.875H0.625V19.125H1.875V17.875Z" fill="#888693"/>
<path d="M1.875 24.125H3.125V24.75C3.125 25.0952 3.40484 25.375 3.75 25.375H5V22.875H3.75H1.875V24.125Z" fill="#5C546A"/>
<path d="M1.875 22.875H0.625V24.125H1.875V22.875Z" fill="#888693"/>
<path d="M16.875 23.5V24.125H18.125V22.875H16.25C16.5952 22.875 16.875 23.1548 16.875 23.5Z" fill="#5C546A"/>
<path d="M19.375 22.875H18.125V24.125H19.375V22.875Z" fill="#888693"/>
<path d="M7.5 22.875H6.25V25.375H7.5V22.875Z" fill="#5C546A"/>
<path d="M10 22.875H8.75V25.375H10V22.875Z" fill="#5C546A"/>
<path d="M16.8413 24.9512C16.7796 25.1324 16.6373 25.2759 16.4569 25.3392C16.6373 25.2759 16.7796 25.1324 16.8413 24.9512Z" fill="#5C546A"/>
<path d="M16.8544 24.9067C16.8622 24.8765 16.8685 24.8457 16.8718 24.8138C16.8685 24.8457 16.8622 24.8765 16.8544 24.9067Z" fill="#5C546A"/>
<path d="M16.25 25.375C16.3227 25.375 16.392 25.362 16.4569 25.3392C16.6373 25.2759 16.7796 25.1324 16.8412 24.9512C16.8462 24.9366 16.8505 24.9218 16.8544 24.9068C16.8622 24.8766 16.8685 24.8458 16.8718 24.8139C16.8739 24.7929 16.875 24.7716 16.875 24.75V24.125V23.5C16.875 23.1548 16.5952 22.875 16.25 22.875H10V25.375H16.25V25.375Z" fill="#888693"/>
<path d="M5 26C5 26.3455 5.27953 26.625 5.625 26.625C5.97047 26.625 6.25 26.3455 6.25 26V25.375V22.875C6.25 22.5295 5.97047 22.25 5.625 22.25C5.27953 22.25 5 22.5295 5 22.875V25.375V26Z" fill="#888693"/>
<path d="M7.5 26C7.5 26.3455 7.77953 26.625 8.125 26.625C8.47047 26.625 8.75 26.3455 8.75 26V25.375V22.875C8.75 22.5295 8.47047 22.25 8.125 22.25C7.77953 22.25 7.5 22.5295 7.5 22.875V25.375V26Z" fill="#888693"/>
<path d="M2.53369 40.5762C2.59533 40.7574 2.73768 40.9009 2.91807 40.9642C2.73768 40.9009 2.59533 40.7574 2.53369 40.5762Z" fill="#888693"/>
<path d="M9.37179 40.4389C9.36859 40.4707 9.36226 40.5016 9.35437 40.5318C9.36218 40.5015 9.36851 40.4707 9.37179 40.4389Z" fill="#888693"/>
<path d="M2.5206 40.5317C2.51278 40.5015 2.50646 40.4707 2.50317 40.4388C2.50646 40.4707 2.51278 40.5015 2.5206 40.5317Z" fill="#888693"/>
<path d="M8.95691 40.9642C9.1373 40.9009 9.27964 40.7574 9.34128 40.5762C9.27964 40.7574 9.1373 40.9009 8.95691 40.9642Z" fill="#888693"/>
<path d="M8.75 36.625H5.625C5.38492 36.625 5.15156 36.653 4.92695 36.7042C3.53727 37.0214 2.5 38.2641 2.5 39.75C2.5 39.5359 2.52195 39.327 2.56297 39.125H9.375V37.25C9.375 36.9048 9.09516 36.625 8.75 36.625Z" fill="#888693"/>
<path d="M10.6456 40.5317C10.6378 40.5015 10.6315 40.4707 10.6282 40.4388C10.6315 40.4707 10.6378 40.5015 10.6456 40.5317Z" fill="#888693"/>
<path d="M17.0819 40.9642C17.2623 40.9009 17.4046 40.7574 17.4663 40.5762C17.4046 40.7574 17.2623 40.9009 17.0819 40.9642Z" fill="#888693"/>
<path d="M17.4967 40.4389C17.4935 40.4707 17.4871 40.5016 17.4792 40.5318C17.4871 40.5015 17.4935 40.4707 17.4967 40.4389Z" fill="#888693"/>
<path d="M10.6587 40.5762C10.7203 40.7574 10.8627 40.9009 11.0431 40.9642C10.8627 40.9009 10.7203 40.7574 10.6587 40.5762Z" fill="#888693"/>
<path d="M11.25 36.625C10.9048 36.625 10.625 36.9048 10.625 37.25V39.125H17.437C17.478 39.327 17.5 39.5359 17.5 39.75C17.5 38.2642 16.4627 37.0215 15.073 36.7042C14.8484 36.653 14.6151 36.625 14.375 36.625H11.25Z" fill="#888693"/>
<path d="M2.5 39.75V40.375C2.5 40.3966 2.50109 40.4179 2.5032 40.4389C2.50641 40.4707 2.51273 40.5016 2.52063 40.5318C2.52453 40.5469 2.52875 40.5617 2.53375 40.5762C2.59539 40.7574 2.73773 40.9009 2.91813 40.9642C2.98297 40.987 3.05242 41 3.125 41H8.75C8.82266 41 8.89203 40.987 8.95687 40.9642C9.13727 40.9009 9.27961 40.7574 9.34125 40.5762C9.34625 40.5616 9.35047 40.5468 9.35437 40.5318C9.36219 40.5016 9.36852 40.4708 9.3718 40.4389C9.37391 40.4179 9.375 40.3966 9.375 40.375V39.125H2.56297C2.52195 39.327 2.5 39.5359 2.5 39.75Z" fill="#B6B8BE"/>
<path d="M10.625 39.125V40.375C10.625 40.3966 10.6261 40.4179 10.6282 40.4389C10.6314 40.4707 10.6377 40.5016 10.6456 40.5318C10.6495 40.5469 10.6538 40.5617 10.6588 40.5762C10.7204 40.7574 10.8627 40.9009 11.0431 40.9642C11.108 40.987 11.1774 41 11.25 41H16.875C16.9477 41 17.017 40.987 17.0819 40.9642C17.2623 40.9009 17.4046 40.7574 17.4662 40.5762C17.4712 40.5616 17.4755 40.5468 17.4794 40.5318C17.4872 40.5016 17.4935 40.4708 17.4968 40.4389C17.4989 40.4179 17.5 40.3966 17.5 40.375V39.75C17.5 39.5359 17.478 39.327 17.437 39.125H10.625V39.125Z" fill="#B6B8BE"/>
<path d="M16 16.0156C16 16.3004 15.8419 16.5312 15.5312 16.5312H13.4688C13.1581 16.5312 13 16.3004 13 16.0156V14.9844C13 14.6996 13.1581 14.4688 13.4688 14.4688H15.5312C15.8419 14.4688 16 14.6996 16 14.9844V16.0156Z" fill="#128807"/>
<path d="M15.6784 15.537L14.507 16.3602L13.3356 15.537L14.507 14.7139L15.6784 15.537Z" fill="#F9CB38"/>
<path fill-rule="evenodd" clip-rule="evenodd" d="M14.9692 15.6804C14.9159 15.8616 14.749 15.9996 14.56 16.0184C14.3074 16.0436 14.0865 15.8831 14.0328 15.635C14.0169 15.5621 14.0189 15.4864 14.0387 15.4145C14.0461 15.4065 14.0562 15.4046 14.0664 15.4032C14.1402 15.3929 14.2149 15.3897 14.2894 15.3935C14.3688 15.398 14.4476 15.409 14.5242 15.4307C14.6028 15.4529 14.6789 15.482 14.7508 15.5206C14.8049 15.5493 14.8565 15.5824 14.9052 15.6195C14.9217 15.6323 14.9386 15.6449 14.9544 15.6585C14.9615 15.6646 14.967 15.6712 14.9692 15.6804" fill="#002776"/>
<path fill-rule="evenodd" clip-rule="evenodd" d="M14.0652 15.3411C14.1257 15.2059 14.2277 15.1159 14.3688 15.0736C14.6529 14.9884 14.9443 15.1761 14.9865 15.4689C14.9931 15.5142 14.9934 15.5595 14.9864 15.6049C14.9792 15.6075 14.9739 15.6037 14.969 15.5997C14.9175 15.5576 14.8626 15.5199 14.8048 15.4871C14.7603 15.4618 14.714 15.4397 14.6664 15.4211C14.658 15.4177 14.6474 15.416 14.6445 15.4047C14.6475 15.3993 14.6514 15.3945 14.656 15.3901C14.6576 15.3884 14.66 15.3868 14.6578 15.384C14.657 15.3831 14.6555 15.3831 14.6542 15.3832C14.6507 15.3836 14.6511 15.386 14.6513 15.3886C14.6515 15.397 14.6467 15.4024 14.6402 15.4067C14.6289 15.4093 14.6179 15.4059 14.6087 15.4009C14.5823 15.3871 14.553 15.3823 14.525 15.3746C14.4814 15.3627 14.4366 15.356 14.3919 15.3491C14.3562 15.3434 14.3202 15.3393 14.2842 15.3368C14.2514 15.3345 14.218 15.3348 14.1849 15.3371C14.1489 15.3396 14.1127 15.3421 14.0769 15.3464C14.0746 15.3468 14.0723 15.3464 14.0702 15.3455C14.0682 15.3446 14.0664 15.343 14.0652 15.3411" fill="#002776"/>
<path fill-rule="evenodd" clip-rule="evenodd" d="M14.6449 15.4018C14.6447 15.4075 14.6498 15.4068 14.6529 15.408C14.7739 15.4551 14.8865 15.5216 14.9862 15.6048C14.9833 15.6306 14.9776 15.6559 14.9692 15.6804C14.9106 15.6317 14.8505 15.5853 14.7841 15.5475C14.5741 15.4279 14.3493 15.3805 14.109 15.4059C14.0856 15.4083 14.0621 15.4115 14.0387 15.4143C14.0447 15.389 14.0524 15.3641 14.065 15.341C14.2405 15.3174 14.4129 15.3308 14.5821 15.3832C14.6031 15.3897 14.6231 15.4002 14.6455 15.4022L14.6449 15.4016" fill="#FEFEFE"/>
<path fill-rule="evenodd" clip-rule="evenodd" d="M14.8633 15.7039C14.8491 15.7024 14.8645 15.7197 14.8502 15.7193C14.8378 15.7191 14.8371 15.7092 14.8311 15.7037C14.8357 15.6988 14.844 15.6978 14.8467 15.6902C14.8484 15.6982 14.856 15.6999 14.8633 15.7039Z" fill="#D9DFEA"/>
<path fill-rule="evenodd" clip-rule="evenodd" d="M14.331 15.7906C14.3177 15.7922 14.3288 15.8066 14.3177 15.8068C14.3065 15.8071 14.3008 15.7988 14.2985 15.7902C14.2977 15.7878 14.3085 15.7823 14.3138 15.7783C14.3144 15.7868 14.3233 15.7864 14.331 15.7906Z" fill="#E9ECF3"/>
<path fill-rule="evenodd" clip-rule="evenodd" d="M14.5066 15.7645C14.4882 15.7764 14.503 15.7495 14.4922 15.7521C14.4957 15.7465 14.5056 15.7478 14.5063 15.7392C14.511 15.7441 14.515 15.7497 14.5224 15.7507C14.5118 15.7493 14.5234 15.7729 14.5066 15.7645" fill="#EDEFF5"/>
<path fill-rule="evenodd" clip-rule="evenodd" d="M14.126 15.4487C14.1216 15.4571 14.1183 15.4664 14.1049 15.4608C14.0981 15.458 14.1054 15.4486 14.0972 15.4477L14.1124 15.4343C14.1134 15.4365 14.1146 15.4386 14.1156 15.4408C14.1169 15.4464 14.128 15.439 14.126 15.4487" fill="#F0F2F6"/>
<path fill-rule="evenodd" clip-rule="evenodd" d="M14.1685 15.6523C14.1615 15.6545 14.1665 15.6729 14.1515 15.6649C14.15 15.6641 14.1434 15.6678 14.1447 15.6656C14.1486 15.658 14.1398 15.6542 14.1411 15.6481C14.1493 15.6516 14.1489 15.6366 14.1573 15.6407C14.1579 15.6411 14.1579 15.643 14.1583 15.6442C14.1592 15.65 14.1705 15.6428 14.1685 15.6523Z" fill="#ECEFF4"/>
<path fill-rule="evenodd" clip-rule="evenodd" d="M14.0947 15.7066C14.0803 15.7116 14.091 15.6942 14.0828 15.6944C14.0866 15.6912 14.0909 15.6851 14.0948 15.6853C14.0994 15.6856 14.1036 15.6912 14.1078 15.6945C14.1015 15.6966 14.1081 15.7136 14.0947 15.7066" fill="#D9DFEA"/>
<path fill-rule="evenodd" clip-rule="evenodd" d="M14.6509 15.8725C14.6357 15.8795 14.6505 15.859 14.6403 15.8616C14.6393 15.8538 14.652 15.8585 14.6504 15.8503L14.6641 15.8613C14.6586 15.8638 14.6641 15.8798 14.6509 15.8725" fill="#D8DEEA"/>
<path fill-rule="evenodd" clip-rule="evenodd" d="M14.7485 15.8612C14.7359 15.8665 14.7436 15.8495 14.7368 15.8478C14.7414 15.8449 14.7462 15.8417 14.7507 15.8387C14.7511 15.8456 14.7606 15.8431 14.7617 15.8492C14.7546 15.8496 14.7619 15.8649 14.7485 15.8612M14.8361 15.7981C14.8218 15.8054 14.8324 15.7863 14.8242 15.7871C14.8258 15.781 14.8353 15.7833 14.8358 15.7763L14.8493 15.7864C14.8411 15.7861 14.8511 15.8062 14.8361 15.7981" fill="#DCE1EC"/>
<path fill-rule="evenodd" clip-rule="evenodd" d="M14.2554 15.7106C14.2404 15.7191 14.2502 15.7001 14.2433 15.6997C14.244 15.6927 14.2546 15.6957 14.2551 15.6883C14.2565 15.6952 14.2656 15.6932 14.2675 15.6994C14.2586 15.698 14.2713 15.7196 14.2554 15.7106" fill="#D4DAE7"/>
<path fill-rule="evenodd" clip-rule="evenodd" d="M14.3162 15.5682C14.3078 15.5676 14.3186 15.5543 14.3082 15.5551C14.31 15.5476 14.318 15.5492 14.3224 15.5453C14.3247 15.55 14.3311 15.5511 14.3314 15.5579C14.3321 15.5703 14.3211 15.5639 14.3162 15.5682" fill="#F2F4F7"/>
<path fill-rule="evenodd" clip-rule="evenodd" d="M14.5633 15.6672C14.5503 15.6747 14.5571 15.658 14.5511 15.6562C14.5552 15.6528 14.5592 15.6494 14.5633 15.6459C14.5636 15.6529 14.5768 15.6513 14.5731 15.6567C14.5708 15.6598 14.5781 15.6744 14.5633 15.6672Z" fill="#E6E9F1"/>
<path fill-rule="evenodd" clip-rule="evenodd" d="M14.5051 15.6254C14.4903 15.6269 14.5056 15.6135 14.496 15.6138C14.4997 15.6103 14.5033 15.6043 14.5075 15.6039C14.5112 15.6035 14.5154 15.6095 14.5194 15.6128C14.5142 15.6178 14.515 15.6307 14.5051 15.6254" fill="#EAEDF3"/>
<path fill-rule="evenodd" clip-rule="evenodd" d="M14.8648 15.7348C14.8678 15.7429 14.8738 15.744 14.8785 15.7468C14.8737 15.7522 14.8718 15.7605 14.8619 15.7605C14.8517 15.7606 14.8586 15.7528 14.8563 15.7492C14.8507 15.7402 14.8716 15.7478 14.8648 15.7348" fill="#E4E8F0"/>
<path fill-rule="evenodd" clip-rule="evenodd" d="M14.7587 15.8982C14.7551 15.9034 14.7576 15.9085 14.7481 15.9087C14.7373 15.9089 14.7408 15.901 14.7403 15.8985C14.7394 15.8945 14.7456 15.8907 14.7491 15.8914C14.7522 15.892 14.7582 15.8937 14.7587 15.8982Z" fill="#CED5E4"/>
<path fill-rule="evenodd" clip-rule="evenodd" d="M14.2522 15.748C14.2445 15.7489 14.2509 15.759 14.2411 15.7586C14.2322 15.7584 14.2335 15.7523 14.2325 15.7487C14.231 15.7436 14.2385 15.7437 14.2402 15.7399C14.2438 15.7423 14.2474 15.7448 14.2522 15.748" fill="#DAE0EB"/>
<path fill-rule="evenodd" clip-rule="evenodd" d="M14.7377 15.8015C14.741 15.799 14.7443 15.7967 14.7478 15.7944C14.7481 15.7996 14.7593 15.7966 14.7556 15.8032C14.754 15.8059 14.7578 15.8132 14.7481 15.8126C14.7394 15.812 14.7415 15.8059 14.7377 15.8015Z" fill="#D8DEE9"/>
<path fill-rule="evenodd" clip-rule="evenodd" d="M14.702 15.8176C14.7003 15.8268 14.695 15.8283 14.6893 15.8294C14.6795 15.831 14.6868 15.8237 14.6853 15.8209C14.6811 15.8138 14.6915 15.8152 14.6928 15.8106C14.6955 15.8142 14.7017 15.8141 14.702 15.8176Z" fill="#CBD2E3"/>
<path fill-rule="evenodd" clip-rule="evenodd" d="M14.6472 15.5136C14.6439 15.5151 14.6483 15.523 14.6412 15.5207C14.6359 15.5189 14.6293 15.5164 14.6298 15.5098C14.63 15.5073 14.6363 15.5051 14.6399 15.5029C14.6405 15.5077 14.6506 15.5061 14.6472 15.5136Z" fill="#D1D8E6"/>
<path fill-rule="evenodd" clip-rule="evenodd" d="M14.9125 15.7192C14.9036 15.7226 14.9076 15.7154 14.9061 15.7133C14.9002 15.7053 14.9118 15.7064 14.9125 15.7016C14.9161 15.704 14.9231 15.7068 14.9228 15.7088C14.9226 15.7115 14.9215 15.714 14.9196 15.7159C14.9177 15.7178 14.9151 15.719 14.9125 15.7192" fill="#DADFEA"/>
<path fill-rule="evenodd" clip-rule="evenodd" d="M14.4593 15.6476C14.4593 15.6531 14.4702 15.6509 14.4665 15.6577C14.465 15.6605 14.4682 15.6679 14.4606 15.6663C14.4549 15.6652 14.449 15.6618 14.4489 15.6561C14.4489 15.6534 14.4555 15.6506 14.4593 15.6476Z" fill="#CAD2E2"/>
<path fill-rule="evenodd" clip-rule="evenodd" d="M14.6093 15.8172C14.605 15.8152 14.6048 15.8096 14.6051 15.8068C14.6055 15.8032 14.6104 15.7983 14.6145 15.8003C14.617 15.8015 14.6242 15.8008 14.6225 15.8074C14.6209 15.8137 14.6146 15.8146 14.6093 15.8172Z" fill="#D0D7E5"/>
<path fill-rule="evenodd" clip-rule="evenodd" d="M14.7906 15.809C14.7908 15.8089 14.7941 15.8044 14.7978 15.8043C14.8005 15.8042 14.8032 15.8097 14.8061 15.8128C14.8022 15.8139 14.8055 15.821 14.7979 15.8209C14.7911 15.8208 14.7911 15.8177 14.7906 15.809Z" fill="#EFF2F6"/>
<path fill-rule="evenodd" clip-rule="evenodd" d="M14.4891 15.6903C14.4878 15.6954 14.4878 15.6985 14.4833 15.6984C14.4787 15.6983 14.4765 15.6966 14.4766 15.6919C14.4766 15.6882 14.479 15.6857 14.4818 15.6859C14.485 15.6861 14.4895 15.687 14.4891 15.6903" fill="#CCD4E3"/>
<path fill-rule="evenodd" clip-rule="evenodd" d="M14.2016 15.6174C14.2039 15.6198 14.2065 15.6217 14.2074 15.6242C14.2083 15.6263 14.207 15.6294 14.2041 15.6297C14.2008 15.63 14.1974 15.6299 14.1963 15.6259C14.1954 15.622 14.1988 15.6206 14.2016 15.6174Z" fill="#E0E5EE"/>
<path fill-rule="evenodd" clip-rule="evenodd" d="M14.1685 15.6523C14.1672 15.6469 14.1589 15.6504 14.1583 15.6442C14.1601 15.6489 14.174 15.6384 14.1685 15.6523Z" fill="#7085B1"/>
<path fill-rule="evenodd" clip-rule="evenodd" d="M14.126 15.4487C14.1249 15.4429 14.1161 15.4475 14.1156 15.4408C14.1181 15.4448 14.1306 15.4355 14.126 15.4487Z" fill="#5C75A7"/>
<path fill-rule="evenodd" clip-rule="evenodd" d="M14.6458 15.4023C14.6467 15.3988 14.6496 15.3929 14.6484 15.3919C14.6332 15.3783 14.6536 15.376 14.6566 15.3732C14.6622 15.3678 14.6613 15.3905 14.676 15.3762C14.6681 15.3937 14.6575 15.3988 14.6453 15.4018L14.6458 15.4023Z" fill="#E7EAF2"/>
<path fill-rule="evenodd" clip-rule="evenodd" d="M14.194 15.3877C14.1791 15.3863 14.1924 15.3669 14.1891 15.3556C14.1851 15.3411 14.1957 15.3413 14.206 15.3412C14.222 15.3411 14.231 15.3479 14.231 15.3648C14.231 15.3814 14.2233 15.3879 14.194 15.3877Z" fill="#15A24A"/>
<path fill-rule="evenodd" clip-rule="evenodd" d="M14.7635 15.4814C14.7603 15.4914 14.7481 15.4977 14.7461 15.5101C14.7459 15.5117 14.7412 15.5114 14.7403 15.5066C14.7365 15.4842 14.7363 15.4842 14.7198 15.4962C14.7185 15.4972 14.7162 15.4981 14.7149 15.4977C14.7125 15.4966 14.7115 15.4942 14.713 15.4914C14.7184 15.4807 14.7236 15.4698 14.7297 15.4594C14.7339 15.4526 14.7389 15.4583 14.7429 15.4602C14.7518 15.4646 14.7627 15.4671 14.7635 15.4814" fill="#13A248"/>
<path fill-rule="evenodd" clip-rule="evenodd" d="M14.8054 15.5179C14.7968 15.5213 14.7926 15.5148 14.7871 15.5125C14.7833 15.5109 14.7798 15.5094 14.7773 15.5135C14.7745 15.5179 14.7773 15.5205 14.7811 15.5224C14.784 15.5239 14.7871 15.525 14.7892 15.5273C14.793 15.5313 14.8049 15.5302 14.8001 15.5387C14.7963 15.5455 14.7899 15.5376 14.7857 15.5351C14.7785 15.5306 14.7641 15.5282 14.7656 15.5205C14.768 15.5081 14.7751 15.4946 14.7845 15.486C14.7921 15.4792 14.8004 15.4921 14.8089 15.4954C14.8125 15.4967 14.8188 15.4979 14.8177 15.5037C14.8167 15.5096 14.8123 15.5062 14.8089 15.5054C14.801 15.5036 14.7933 15.4901 14.787 15.4994C14.7833 15.505 14.7987 15.5073 14.8036 15.5134C14.8043 15.5142 14.8045 15.5155 14.8054 15.5179M14.9064 15.5841C14.9078 15.5951 14.9034 15.6026 14.8919 15.6007C14.88 15.5987 14.8709 15.5914 14.8689 15.5784C14.8687 15.5771 14.8703 15.5744 14.8716 15.5741C14.8724 15.5738 14.8732 15.5737 14.8739 15.5738C14.8747 15.5739 14.8755 15.5742 14.8762 15.5746C14.8768 15.575 14.8774 15.5756 14.8779 15.5763C14.8783 15.5769 14.8786 15.5777 14.8787 15.5785C14.8802 15.5874 14.8849 15.5914 14.8943 15.5916C14.8961 15.5769 14.8696 15.5702 14.8849 15.555C14.8925 15.5473 14.9018 15.5537 14.9085 15.5598C14.9146 15.5654 14.9221 15.5715 14.9109 15.5795C14.9093 15.5786 14.9072 15.5773 14.906 15.5782C14.9036 15.5798 14.906 15.5821 14.9064 15.5841Z" fill="#11A147"/>
<path fill-rule="evenodd" clip-rule="evenodd" d="M14.5827 15.4445C14.5771 15.4414 14.5774 15.4384 14.5783 15.4351C14.5801 15.4281 14.5765 15.4245 14.5701 15.4225C14.5637 15.4205 14.5588 15.4207 14.5571 15.4287C14.5565 15.4323 14.5546 15.4347 14.5507 15.4334C14.5462 15.4318 14.5484 15.4281 14.5493 15.4255C14.5511 15.4193 14.5527 15.4131 14.5555 15.4073C14.558 15.4014 14.5562 15.3907 14.5655 15.3914C14.5753 15.3921 14.5858 15.3944 14.5933 15.4025C14.5966 15.4061 14.598 15.4122 14.5953 15.4149C14.5873 15.4231 14.588 15.4346 14.5827 15.4445Z" fill="#0FA046"/>
<path fill-rule="evenodd" clip-rule="evenodd" d="M14.2934 15.3849C14.2783 15.3906 14.2663 15.3873 14.2547 15.3875C14.2494 15.3876 14.2489 15.3836 14.2489 15.3796C14.2493 15.3752 14.2493 15.3707 14.2493 15.3662C14.2498 15.3415 14.2586 15.3352 14.2829 15.3421C14.2856 15.3428 14.2882 15.3433 14.2884 15.3463C14.2884 15.3506 14.2853 15.3513 14.2816 15.3512C14.2811 15.3511 14.2804 15.351 14.2798 15.3511C14.2725 15.3529 14.2595 15.3446 14.2593 15.3555C14.259 15.3639 14.2732 15.358 14.2804 15.3608C14.2815 15.3612 14.2826 15.3621 14.2842 15.3633C14.2796 15.3716 14.272 15.367 14.2661 15.3679C14.2625 15.3685 14.2579 15.367 14.2574 15.3727C14.2568 15.3794 14.2615 15.3791 14.2661 15.3796C14.2739 15.3805 14.2824 15.3776 14.2934 15.3849" fill="#0B9F43"/>
<path fill-rule="evenodd" clip-rule="evenodd" d="M14.169 15.3884C14.1609 15.3866 14.162 15.382 14.1606 15.3787C14.1581 15.3726 14.1533 15.3726 14.148 15.3731C14.142 15.3736 14.1387 15.376 14.1392 15.3827C14.1396 15.3859 14.1409 15.3912 14.1348 15.3905C14.1295 15.3898 14.131 15.3847 14.1308 15.3813C14.1303 15.3756 14.1297 15.3698 14.1303 15.3641C14.131 15.3579 14.125 15.3483 14.1341 15.346C14.1434 15.3436 14.1542 15.3418 14.1639 15.3465C14.1681 15.3485 14.1714 15.3534 14.1699 15.3574C14.1663 15.3674 14.1692 15.3776 14.169 15.3884" fill="#079D3F"/>
<path fill-rule="evenodd" clip-rule="evenodd" d="M14.0701 15.3725C14.0716 15.3598 14.0771 15.3495 14.0911 15.3499C14.1044 15.3504 14.1116 15.3596 14.1116 15.373C14.1116 15.3863 14.1054 15.3954 14.0913 15.3953C14.0769 15.3952 14.072 15.3848 14.0701 15.3725Z" fill="#15A24A"/>
<path fill-rule="evenodd" clip-rule="evenodd" d="M14.9624 15.6106C14.9611 15.6232 14.9549 15.6328 14.9405 15.634C14.9272 15.6351 14.9202 15.6275 14.9191 15.615C14.918 15.6024 14.9303 15.5904 14.943 15.5905C14.954 15.5906 14.9621 15.5986 14.9624 15.6106Z" fill="#11A147"/>
<path fill-rule="evenodd" clip-rule="evenodd" d="M14.6992 15.4639C14.7098 15.4724 14.6969 15.4781 14.6965 15.4852C14.6876 15.4811 14.6766 15.4828 14.6695 15.4751C14.6619 15.4668 14.6633 15.4575 14.6683 15.4484C14.6738 15.4388 14.6822 15.4346 14.6926 15.4383C14.702 15.4417 14.7091 15.4481 14.7045 15.4601C14.6973 15.4614 14.6913 15.4518 14.6811 15.4582C14.6879 15.4614 14.696 15.457 14.6992 15.4639" fill="#0C9F43"/>
<path fill-rule="evenodd" clip-rule="evenodd" d="M14.4443 15.3673C14.4381 15.3746 14.4335 15.3718 14.4293 15.3719C14.4252 15.3719 14.4207 15.3685 14.4156 15.3727C14.4202 15.3802 14.4313 15.3754 14.4357 15.3829C14.435 15.3839 14.4348 15.3854 14.434 15.3861C14.4278 15.391 14.4179 15.3792 14.414 15.3889C14.4105 15.3973 14.4198 15.3944 14.4237 15.3958C14.4282 15.3976 14.4338 15.397 14.4393 15.4031C14.4267 15.4086 14.4116 15.406 14.4064 15.3999C14.3982 15.3903 14.404 15.3732 14.4102 15.3647C14.4176 15.3546 14.431 15.3645 14.4443 15.3673" fill="#19A44D"/>
<path fill-rule="evenodd" clip-rule="evenodd" d="M14.5242 15.4081C14.5135 15.407 14.5014 15.3995 14.4984 15.417C14.4983 15.4176 14.4946 15.4184 14.4935 15.4176C14.4922 15.4169 14.4915 15.4143 14.4917 15.4128C14.4945 15.4017 14.4959 15.3898 14.5008 15.3798C14.5066 15.3686 14.5163 15.3781 14.5243 15.3792C14.5338 15.3804 14.5391 15.3862 14.5381 15.3963C14.5372 15.405 14.5306 15.4073 14.5242 15.4081" fill="#0D9F44"/>
<path fill-rule="evenodd" clip-rule="evenodd" d="M14.651 15.435C14.65 15.4491 14.643 15.4588 14.6289 15.4593C14.6163 15.4597 14.6092 15.4509 14.6095 15.4383C14.6099 15.4247 14.6165 15.4149 14.6312 15.4144C14.6446 15.414 14.6498 15.423 14.651 15.435" fill="#0FA046"/>
<path fill-rule="evenodd" clip-rule="evenodd" d="M14.3349 15.3841C14.3334 15.3874 14.3321 15.3921 14.3276 15.3911C14.3199 15.3892 14.3234 15.3818 14.3215 15.3769C14.3158 15.3713 14.3173 15.379 14.3155 15.3804C14.3148 15.3839 14.3164 15.3892 14.3118 15.3899C14.306 15.3906 14.3073 15.3851 14.3075 15.3818C14.308 15.3749 14.3081 15.3678 14.3099 15.3612C14.3116 15.3556 14.3056 15.3452 14.3168 15.3451C14.3267 15.3451 14.3246 15.3552 14.3258 15.3612C14.3271 15.3681 14.3278 15.3711 14.3335 15.3642C14.3394 15.3627 14.3406 15.3669 14.3419 15.371C14.3427 15.377 14.34 15.3812 14.3349 15.3841" fill="#0EA044"/>
<path fill-rule="evenodd" clip-rule="evenodd" d="M14.8342 15.5562C14.8377 15.5562 14.8412 15.5608 14.8446 15.5569C14.8471 15.5539 14.8449 15.551 14.8426 15.5486C14.8409 15.5468 14.8391 15.5451 14.8375 15.5431C14.8327 15.5374 14.826 15.5318 14.8326 15.5235C14.8386 15.5158 14.8456 15.5177 14.8525 15.5225C14.8538 15.525 14.8534 15.5273 14.8521 15.5295C14.847 15.5375 14.8565 15.5424 14.8563 15.5493C14.8577 15.5557 14.8587 15.5621 14.8516 15.5659C14.8428 15.5705 14.836 15.5662 14.8295 15.5606C14.8288 15.5569 14.8302 15.5551 14.8342 15.5562" fill="#10A146"/>
<path fill-rule="evenodd" clip-rule="evenodd" d="M14.6993 15.4639C14.6956 15.4664 14.6884 15.4582 14.6886 15.4644C14.6891 15.4754 14.6836 15.4744 14.6785 15.4712C14.6716 15.4669 14.6712 15.4596 14.6756 15.4528C14.6798 15.4462 14.6858 15.4424 14.693 15.4478C14.6974 15.451 14.7007 15.4559 14.7045 15.4601L14.6993 15.4639" fill="#ECF7F0"/>
<path fill-rule="evenodd" clip-rule="evenodd" d="M14.338 15.373C14.3366 15.3701 14.3351 15.3672 14.3335 15.3645C14.3351 15.3603 14.3366 15.3561 14.3386 15.3521C14.3404 15.3483 14.3435 15.3462 14.3478 15.3476C14.3527 15.3492 14.3523 15.353 14.3521 15.3569C14.351 15.3684 14.3501 15.3798 14.3492 15.3913C14.3424 15.3957 14.3406 15.3917 14.3395 15.3858C14.3387 15.3815 14.3409 15.3769 14.338 15.373Z" fill="#17A34C"/>
<path fill-rule="evenodd" clip-rule="evenodd" d="M14.8564 15.5492C14.8522 15.5449 14.8477 15.5408 14.8437 15.5362C14.8391 15.5308 14.8409 15.5275 14.8478 15.5266C14.8577 15.5288 14.8637 15.5335 14.8608 15.5449C14.8594 15.5463 14.8579 15.5478 14.8564 15.5492" fill="#D7EFE0"/>
<path fill-rule="evenodd" clip-rule="evenodd" d="M14.8608 15.5449C14.8563 15.539 14.855 15.5306 14.8478 15.5266L14.8527 15.5225C14.8605 15.5281 14.8749 15.5313 14.8608 15.5449Z" fill="#2BAB5B"/>
<path fill-rule="evenodd" clip-rule="evenodd" d="M14.9065 15.5841C14.9059 15.5838 14.9051 15.5836 14.9048 15.5831C14.901 15.5761 14.8886 15.5699 14.8928 15.5637C14.8981 15.5563 14.9037 15.5651 14.9066 15.5714C14.9079 15.5741 14.9095 15.5767 14.911 15.5795C14.9094 15.581 14.9079 15.5826 14.9065 15.5841" fill="#E6F5EC"/>
<path fill-rule="evenodd" clip-rule="evenodd" d="M14.8343 15.5562C14.8328 15.5577 14.8313 15.5592 14.8296 15.5606C14.8276 15.5592 14.8249 15.5583 14.8236 15.5562C14.8212 15.5517 14.8144 15.5456 14.8223 15.5421C14.829 15.5389 14.829 15.5474 14.8311 15.5515C14.832 15.5532 14.8331 15.5547 14.8343 15.5562Z" fill="#29AA59"/>
<path fill-rule="evenodd" clip-rule="evenodd" d="M14.3381 15.373C14.3449 15.3756 14.3413 15.3814 14.3414 15.3856C14.3418 15.3915 14.3439 15.3935 14.3494 15.3914C14.3379 15.4025 14.3394 15.3877 14.335 15.3844C14.3361 15.3805 14.337 15.3767 14.3381 15.373" fill="#DDF1E4"/>
<path fill-rule="evenodd" clip-rule="evenodd" d="M14.3153 15.3805V15.3654C14.3218 15.3674 14.322 15.372 14.3213 15.3769C14.3193 15.3781 14.3173 15.3792 14.3153 15.3805Z" fill="#6FC690"/>
<path fill-rule="evenodd" clip-rule="evenodd" d="M14.1985 15.365C14.1991 15.3581 14.1959 15.3492 14.2075 15.35C14.2161 15.3505 14.2223 15.3539 14.2227 15.3637C14.2232 15.3742 14.217 15.3784 14.2073 15.3791C14.195 15.3801 14.2 15.3704 14.1985 15.365" fill="#F5FBF7"/>
<path fill-rule="evenodd" clip-rule="evenodd" d="M14.739 15.4681C14.7439 15.4708 14.7514 15.4713 14.7529 15.4785C14.7537 15.4823 14.7505 15.4848 14.7472 15.4837C14.741 15.4818 14.7328 15.4817 14.7319 15.473C14.7317 15.4705 14.7344 15.4673 14.739 15.4681Z" fill="#EFF8F3"/>
<path fill-rule="evenodd" clip-rule="evenodd" d="M14.587 15.4105C14.5857 15.4153 14.5823 15.417 14.5784 15.4156C14.5731 15.4136 14.5646 15.4158 14.5645 15.4065C14.5643 15.4016 14.5676 15.4002 14.572 15.4016C14.5778 15.4035 14.5848 15.4033 14.587 15.4105Z" fill="#DEF2E5"/>
<path fill-rule="evenodd" clip-rule="evenodd" d="M14.1491 15.3528C14.1537 15.3533 14.161 15.3509 14.1605 15.3587C14.1601 15.3655 14.1531 15.3645 14.1481 15.3646C14.1442 15.3647 14.1384 15.3668 14.1381 15.3596C14.1378 15.3511 14.1444 15.3537 14.1491 15.3528" fill="#F3FAF5"/>
<path fill-rule="evenodd" clip-rule="evenodd" d="M14.0898 15.3593C14.0983 15.3598 14.1025 15.3649 14.1028 15.3729C14.1033 15.38 14.0998 15.3861 14.0925 15.3868C14.084 15.3875 14.0802 15.3811 14.0798 15.3733C14.0793 15.3661 14.0821 15.3608 14.0898 15.3593" fill="#F3FAF6"/>
<path fill-rule="evenodd" clip-rule="evenodd" d="M14.953 15.6123C14.9518 15.62 14.9471 15.6255 14.9381 15.6255C14.9308 15.6254 14.9281 15.6201 14.9288 15.6137C14.9295 15.605 14.9347 15.5994 14.9436 15.5995C14.9506 15.5997 14.9533 15.6047 14.953 15.6123" fill="#F9FCFA"/>
<path fill-rule="evenodd" clip-rule="evenodd" d="M14.5131 15.3851C14.5179 15.388 14.5274 15.385 14.5287 15.3943C14.5291 15.3979 14.5252 15.3997 14.5221 15.399C14.5159 15.3977 14.5074 15.3999 14.5066 15.39C14.5065 15.3869 14.5078 15.3836 14.5131 15.3851Z" fill="#E7F5EC"/>
<path fill-rule="evenodd" clip-rule="evenodd" d="M14.6416 15.4361C14.6407 15.4442 14.6367 15.4499 14.6285 15.4499C14.6204 15.45 14.6176 15.4444 14.618 15.437C14.6186 15.4288 14.6232 15.4234 14.6312 15.423C14.639 15.4227 14.6416 15.429 14.6416 15.4361" fill="#F5FBF7"/>
</svg>
