<svg width="32" height="24" viewBox="0 0 32 24" fill="none" xmlns="http://www.w3.org/2000/svg">
<path d="M31.68 0H0.32C0.144 0 0 0.122727 0 0.272727V2.45455C0 2.60455 0.144 2.72727 0.32 2.72727H31.68C31.856 2.72727 32 2.60455 32 2.45455V0.272727C32 0.122727 31.856 0 31.68 0ZM31.68 21.2727H0.32C0.144 21.2727 0 21.3955 0 21.5455V23.7273C0 23.8773 0.144 24 0.32 24H31.68C31.856 24 32 23.8773 32 23.7273V21.5455C32 21.3955 31.856 21.2727 31.68 21.2727ZM31.68 10.6364H0.32C0.144 10.6364 0 10.7591 0 10.9091V13.0909C0 13.2409 0.144 13.3636 0.32 13.3636H31.68C31.856 13.3636 32 13.2409 32 13.0909V10.9091C32 10.7591 31.856 10.6364 31.68 10.6364Z" fill="white"/>
</svg>
